<?xml version="1.0" encoding="UTF-8" standalone="no"?>
<svg
   xmlns:dc="http://purl.org/dc/elements/1.1/"
   xmlns:cc="http://creativecommons.org/ns#"
   xmlns:rdf="http://www.w3.org/1999/02/22-rdf-syntax-ns#"
   xmlns:svg="http://www.w3.org/2000/svg"
   xmlns="http://www.w3.org/2000/svg"
   viewBox="0 0 377.95334 278.25201"
   height="278.25201"
   width="377.95334"
   xml:space="preserve"
   id="svg2"
   version="1.1"><metadata
     id="metadata8"><rdf:RDF><cc:Work
         rdf:about=""><dc:format>image/svg+xml</dc:format><dc:type
           rdf:resource="http://purl.org/dc/dcmitype/StillImage" /></cc:Work></rdf:RDF></metadata><defs
     id="defs6"><clipPath
       id="clipPath22"
       clipPathUnits="userSpaceOnUse"><path
         id="path20"
         d="M 0,208.689 V 0 h 283.465 v 208.689 z" /></clipPath><linearGradient
       id="linearGradient88"
       spreadMethod="pad"
       gradientTransform="matrix(0,-189.252,-189.252,0,141.732,208.689)"
       gradientUnits="userSpaceOnUse"
       y2="0"
       x2="1"
       y1="0"
       x1="0"><stop
         id="stop82"
         offset="0"
         style="stop-opacity:1;stop-color:#f0f1f1" /><stop
         id="stop84"
         offset="1"
         style="stop-opacity:1;stop-color:#96989b" /><stop
         id="stop86"
         offset="1"
         style="stop-opacity:1;stop-color:#96989b" /></linearGradient></defs><g
     transform="matrix(1.3333333,0,0,-1.3333333,0,278.252)"
     id="g10"><g
       id="g12"><path
         id="path14"
         style="fill:#ffffff;fill-opacity:1;fill-rule:nonzero;stroke:none"
         d="M 0,208.689 H 1183.3333 V -662.1443 H 0 Z" /><g
         id="g16"><g
           clip-path="url(#clipPath22)"
           id="g18"><path
             id="path24"
             style="fill:#1b5da6;fill-opacity:1;fill-rule:evenodd;stroke:none"
             d="M 233.449,66.276 H 0.2715 V 172.897 H 233.449 Z" /><path
             id="path26"
             style="fill:#373535;fill-opacity:1;fill-rule:nonzero;stroke:none"
             d="M 3.0566,185.1636 H 1.1475 v 14.3926 h 1.9091 z" /><path
             id="path28"
             style="fill:#373535;fill-opacity:1;fill-rule:nonzero;stroke:none"
             d="m 18.6494,195.2769 0.2861,-4.8262 v -5.2871 h -1.9052 v 14.3926 h 1.832 l 3.3574,-10.9365 0.0401,0.0371 -0.46,5.7646 v 5.1348 h 1.9082 v -14.3926 h -1.7773 l -3.3575,11.0889 -0.0361,-0.0371 z" /><path
             id="path30"
             style="fill:#373535;fill-opacity:1;fill-rule:nonzero;stroke:none"
             d="m 42.7593,199.5562 v -1.6631 h -2.1582 v -12.7295 h -1.9112 v 12.7295 h -2.2553 v 1.6631 z" /><path
             id="path32"
             style="fill:#373535;fill-opacity:1;fill-rule:nonzero;stroke:none"
             d="m 60.6265,199.5562 v -1.6631 h -3.2266 v -4.5244 h 2.8828 v -1.6592 h -2.8828 v -4.8867 h 3.2266 v -1.6592 h -5.1348 v 14.3926 z" /><path
             id="path34"
             style="fill:#373535;fill-opacity:1;fill-rule:nonzero;stroke:none"
             d="m 77.5923,195.4507 c 0,1.375 -0.1699,2.5195 -1.6221,2.4815 h -0.3047 v -4.7539 c 1.4346,-0.0918 1.9268,0.8232 1.9268,2.2724 z m -3.8379,4.1055 h 2.2949 c 1.3945,0 3.5645,-0.0772 3.5645,-3.6856 0,-1.3545 -0.3955,-3.4189 -1.9785,-3.7011 l 2.6543,-7.0059 h -1.9874 l -2.5996,7.042 h -0.0371 v -7.042 h -1.9111 z" /><path
             id="path36"
             style="fill:#373535;fill-opacity:1;fill-rule:nonzero;stroke:none"
             d="m 94.9634,195.2769 0.289,-4.8262 v -5.2871 h -1.9111 v 14.3926 h 1.832 l 3.3604,-10.9365 0.04,0.0371 -0.4599,5.7646 v 5.1348 h 1.9092 v -14.3926 h -1.7715 l -3.3604,11.0889 -0.04,-0.0371 z" /><path
             id="path38"
             style="fill:#373535;fill-opacity:1;fill-rule:nonzero;stroke:none"
             d="m 117.506,191.5386 -0.721,5.2295 h -0.039 l -1.148,-7.3096 h 2.292 z m 0.043,8.0176 3.089,-14.3926 h -1.927 l -0.535,2.8037 h -2.861 l -0.536,-2.8037 h -1.875 l 3.136,14.3926 z" /><path
             id="path40"
             style="fill:#373535;fill-opacity:1;fill-rule:nonzero;stroke:none"
             d="m 137.915,199.5562 v -1.6631 h -2.158 v -12.7295 h -1.905 v 12.7295 h -2.256 v 1.6631 z" /><path
             id="path42"
             style="fill:#373535;fill-opacity:1;fill-rule:nonzero;stroke:none"
             d="m 152.551,185.1636 h -1.906 v 14.3926 h 1.906 z" /><path
             id="path44"
             style="fill:#373535;fill-opacity:1;fill-rule:nonzero;stroke:none"
             d="m 168.184,192.3589 c 0,-3.0537 0.212,-5.5928 1.722,-5.5928 1.504,0 1.711,2.5391 1.711,5.5928 0,3.0576 -0.207,5.5938 -1.711,5.5938 -1.51,0 -1.722,-2.5362 -1.722,-5.5938 z m 5.461,0 c 0,-2.5976 -0.032,-7.3867 -3.739,-7.3867 -3.701,0 -3.744,4.7891 -3.744,7.3867 0,2.5947 0.043,7.3877 3.744,7.3877 3.707,0 3.739,-4.793 3.739,-7.3877 z" /><path
             id="path46"
             style="fill:#373535;fill-opacity:1;fill-rule:nonzero;stroke:none"
             d="m 188.881,195.2769 0.287,-4.8262 v -5.2871 h -1.912 v 14.3926 h 1.832 l 3.361,-10.9365 0.037,0.0371 -0.457,5.7646 v 5.1348 h 1.905 v -14.3926 h -1.772 l -3.359,11.0889 -0.037,-0.0371 z" /><path
             id="path48"
             style="fill:#373535;fill-opacity:1;fill-rule:nonzero;stroke:none"
             d="m 211.424,191.5386 -0.731,5.2295 h -0.035 l -1.144,-7.3096 h 2.287 z m 0.037,8.0176 3.092,-14.3926 h -1.93 l -0.529,2.8037 h -2.862 l -0.541,-2.8037 h -1.869 l 3.135,14.3926 z" /><path
             id="path50"
             style="fill:#373535;fill-opacity:1;fill-rule:nonzero;stroke:none"
             d="m 229.365,199.5562 v -12.7334 h 3.207 v -1.6592 h -5.113 v 14.3926 z" /><path
             id="path52"
             style="fill:#373535;fill-opacity:1;fill-rule:nonzero;stroke:none"
             d="M 4.6025,43.728 3.875,48.962 H 3.8389 L 2.6904,41.652 H 4.9795 Z M 4.6387,51.751 7.7285,37.353 H 5.8047 L 5.2656,40.16 H 2.4053 L 1.8691,37.353 H 0 l 3.1289,14.398 z" /><path
             id="path54"
             style="fill:#373535;fill-opacity:1;fill-rule:nonzero;stroke:none"
             d="m 29.1719,49.535 c -0.502,0.359 -0.9766,0.609 -1.625,0.609 -1.0537,0 -1.7022,-0.859 -1.7022,-1.851 0,-0.627 0.1524,-1.065 0.5362,-1.565 l 1.4492,-1.582 c 1.2959,-1.32 2.0449,-2.271 2.0449,-4.225 0,-2.021 -1.2598,-3.755 -3.3818,-3.755 -0.7422,0 -1.5059,0.207 -2.0996,0.687 v 1.924 c 0.5752,-0.42 1.1503,-0.742 1.8896,-0.742 1.1846,0 1.6807,0.931 1.6807,2.008 0,2.861 -4.0303,3.433 -4.0303,7.214 0,2.022 1.0713,3.681 3.2295,3.681 0.7275,0 1.4121,-0.115 2.0215,-0.475 z" /><path
             id="path56"
             style="fill:#373535;fill-opacity:1;fill-rule:nonzero;stroke:none"
             d="m 51.6714,49.535 c -0.4961,0.359 -0.9736,0.609 -1.625,0.609 -1.0469,0 -1.6953,-0.859 -1.6953,-1.851 0,-0.627 0.1513,-1.065 0.5322,-1.565 l 1.4551,-1.582 c 1.2939,-1.32 2.039,-2.271 2.039,-4.225 0,-2.021 -1.2597,-3.755 -3.3779,-3.755 -0.7461,0 -1.5068,0.207 -2.1006,0.687 v 1.924 c 0.5752,-0.42 1.1446,-0.742 1.8907,-0.742 1.1865,0 1.6767,0.931 1.6767,2.008 0,2.861 -4.0244,3.433 -4.0244,7.214 0,2.022 1.0684,3.681 3.2266,3.681 0.7246,0 1.4091,-0.115 2.0214,-0.475 z" /><path
             id="path58"
             style="fill:#373535;fill-opacity:1;fill-rule:nonzero;stroke:none"
             d="m 71.4106,44.55 c 0,-3.056 0.2071,-5.59 1.7168,-5.59 1.5098,0 1.7168,2.534 1.7168,5.59 0,3.055 -0.207,5.594 -1.7168,5.594 -1.5097,0 -1.7168,-2.539 -1.7168,-5.594 z m 5.461,0 c 0,-2.593 -0.043,-7.384 -3.7442,-7.384 -3.707,0 -3.7412,4.791 -3.7412,7.384 0,2.598 0.0342,7.388 3.7412,7.388 3.7012,0 3.7442,-4.79 3.7442,-7.388 z" /><path
             id="path60"
             style="fill:#373535;fill-opacity:1;fill-rule:nonzero;stroke:none"
             d="m 100.16,49.779 c -0.3841,0.195 -0.7855,0.365 -1.224,0.365 -2.6728,0 -2.6943,-3.891 -2.6943,-5.685 0,-1.913 0.1553,-5.499 2.7705,-5.499 0.4199,0 0.7852,0.092 1.1478,0.288 v -1.682 c -0.4779,-0.309 -0.9779,-0.4 -1.5257,-0.4 -3.8985,0 -4.416,4.138 -4.416,7.152 0,2.885 0.3681,7.62 4.2793,7.62 0.6484,0 1.1084,-0.096 1.6624,-0.42 z" /><path
             id="path62"
             style="fill:#373535;fill-opacity:1;fill-rule:nonzero;stroke:none"
             d="m 119.284,37.353 h -1.909 v 14.398 h 1.909 z" /><path
             id="path64"
             style="fill:#373535;fill-opacity:1;fill-rule:nonzero;stroke:none"
             d="m 140.876,43.728 -0.727,5.234 h -0.039 l -1.148,-7.31 h 2.295 z m 0.035,8.023 3.088,-14.398 h -1.927 l -0.531,2.807 h -2.862 l -0.536,-2.807 h -1.872 l 3.133,14.398 z" /><path
             id="path66"
             style="fill:#373535;fill-opacity:1;fill-rule:nonzero;stroke:none"
             d="m 165.383,51.751 v -1.662 h -2.154 V 37.353 h -1.913 v 12.736 h -2.252 v 1.662 z" /><path
             id="path68"
             style="fill:#373535;fill-opacity:1;fill-rule:nonzero;stroke:none"
             d="m 184.121,37.353 h -1.898 v 14.398 h 1.898 z" /><path
             id="path70"
             style="fill:#373535;fill-opacity:1;fill-rule:nonzero;stroke:none"
             d="m 203.863,44.55 c 0,-3.056 0.207,-5.59 1.717,-5.59 1.51,0 1.723,2.534 1.723,5.59 0,3.055 -0.213,5.594 -1.723,5.594 -1.51,0 -1.717,-2.539 -1.717,-5.594 z m 5.461,0 c 0,-2.593 -0.037,-7.384 -3.744,-7.384 -3.701,0 -3.738,4.791 -3.738,7.384 0,2.598 0.037,7.388 3.738,7.388 3.707,0 3.744,-4.79 3.744,-7.388 z" /><path
             id="path72"
             style="fill:#373535;fill-opacity:1;fill-rule:nonzero;stroke:none"
             d="m 228.658,47.478 0.287,-4.834 v -5.291 h -1.906 v 14.398 h 1.832 l 3.356,-10.939 0.035,0.035 -0.449,5.766 v 5.138 h 1.904 V 37.353 h -1.772 l -3.359,11.092 -0.037,-0.035 z" /><path
             id="path74"
             style="fill:#fefefe;fill-opacity:1;fill-rule:nonzero;stroke:none"
             d="m 39.0454,122.4839 c 6.3555,-0.2617 9.9717,2.1182 9.9717,8.917 0,4.7666 -1.8506,8.6504 -7.5,8.6504 H 39.0454 Z M 25.8906,84.35 v 66.5587 h 13.688 c 2.8213,0 22.5938,1.7657 22.5938,-19.6845 0,-12.4473 -8.0323,-19.5948 -20.2139,-19.5948 l -2.9131,0.1768 V 84.35 Z" /><path
             id="path76"
             style="fill:#fefefe;fill-opacity:1;fill-rule:nonzero;stroke:none"
             d="m 112.402,150.9087 16.418,-40.165 0.177,0.1767 c -0.794,3.1807 -1.063,6.6202 -1.063,10.0655 v 29.9228 h 13.155 V 84.35 h -12.442 l -16.245,40.1642 -0.177,-0.1748 0.618,-6.707 0.088,-2.7393 V 84.35 H 99.7817 v 66.5587 z" /><path
             id="path78"
             style="fill:#fefefe;fill-opacity:1;fill-rule:nonzero;stroke:none"
             d="M 207.826,150.9087 V 138.5503 H 194.41 V 124.3394 H 206.5 V 111.9829 H 194.41 V 84.35 h -13.156 v 66.5587 z" /><path
             id="path80"
             style="fill:#373535;fill-opacity:1;fill-rule:nonzero;stroke:none"
             d="m 228.7095,3.503 h 1.5248 v 1.0544 h 0.0324 c 0.3082,-0.7138 0.6327,-1.1842 1.5086,-1.1842 1.8979,0 1.9303,3.001 1.9303,4.3311 0,1.3626 -0.0486,4.1202 -1.9789,4.1202 -0.7787,0 -1.1518,-0.4056 -1.46,-1.0382 h -0.0324 v 6.1803 h -1.5248 z m 2.4332,1.2328 c -1.0219,0.0162 -0.9571,2.2223 -0.9571,2.8712 0,0.6488 -0.0648,2.8549 0.9571,2.8549 1.1355,0 1.0057,-2.1899 1.0057,-2.8549 0,-0.6651 0.1298,-2.855 -1.0057,-2.8712 z m 3.0982,6.9589 2.1737,-7.5266 -1.2653,-4.0229 h 1.6059 l 3.3416,11.5495 h -1.541 L 237.177,5.9848 h -0.0325 l -1.2003,5.7099 z m 11.9218,4.0391 h -1.6221 V 3.503 h 1.6221 z M 249.7642,3.503 v 5.4179 c 2.5305,-0.0973 3.5038,1.0544 3.5038,3.5362 0,3.1469 -1.7843,3.2767 -3.1793,3.2767 h -1.9466 V 3.503 Z m 0.2271,10.852 c 1.2328,0 1.5573,-0.9246 1.5573,-2.0277 0,-1.3625 -0.3893,-2.1249 -1.7844,-2.0276 v 4.0553 z m 5.7253,-1.4599 0.0324,0.0324 2.8549,-9.4245 h 1.5086 v 12.2308 h -1.6221 v -4.3635 l 0.3893,-4.8988 -0.0325,-0.0325 -2.8549,9.2948 h -1.5572 V 3.503 h 1.6221 v 4.4933 l -0.2433,4.1039 z m 6.3747,2.8387 V 3.503 h 1.6222 v 5.5639 h 2.498 v 1.4112 h -2.498 v 3.8444 h 2.7738 v 1.4113 z m 6.683,0 L 266.114,3.503 h 1.5897 l 0.4542,2.3845 h 2.4331 l 0.4542,-2.3845 h 1.6384 l -2.6279,12.2308 z m 1.5734,-8.581 h -1.9465 l 0.9733,6.2127 h 0.0324 l 0.6164,-4.4446 z" /><path
             id="path90"
             style="fill:url(#linearGradient88);fill-opacity:1;fill-rule:nonzero;stroke:none"
             d="M 283.465,19.437 H 0 v 8.768 h 274.863 v 180.484 h 8.602 z" /></g></g><path
         id="path92"
         style="fill:#ffffff;fill-opacity:1;fill-rule:evenodd;stroke:none"
         d="m 273,13.3795 c 0,2.91 2.2404,5.2725 5,5.2725 2.7596,0 5,-2.3625 5,-5.2725 0,-2.9099 -2.2404,-5.2724 -5,-5.2724 -2.7596,0 -5,2.3625 -5,5.2724 z" /><path
         id="path94"
         style="fill:none;stroke:#373535;stroke-width:0.5;stroke-linecap:square;stroke-linejoin:miter;stroke-miterlimit:3;stroke-dasharray:none;stroke-opacity:1"
         d="m 273,13.3795 c 0,2.91 2.2404,5.2725 5,5.2725 2.7596,0 5,-2.3625 5,-5.2725 0,-2.9099 -2.2404,-5.2724 -5,-5.2724 -2.7596,0 -5,2.3625 -5,5.2724 z" /><g
         id="g96"><g
           transform="translate(274,19.1968)"
           id="g98"><text
             id="text102"
             style="font-variant:normal;font-weight:normal;font-size:8px;font-family:EuphemiaCAS;-inkscape-font-specification:EuphemiaCAS;writing-mode:lr-tb;fill:#373535;fill-opacity:1;fill-rule:nonzero;stroke:none"
             transform="matrix(1,0,0,-1,1.6328,-8.7383)"><tspan
               id="tspan100"
               y="0"
               x="0">R</tspan></text>
</g></g></g></g></svg>